<svg xmlns="http://www.w3.org/2000/svg" viewBox="72 20 205 160" style="zoom:1"><defs><style>.st0{fill:#f4f4f4}.st1{fill:#fafafa}.st3{fill:#f1f1f1}.st4{fill:none;stroke:#0068ff;stroke-width:3;stroke-linecap:round;stroke-linejoin:round;stroke-miterlimit:10}.st5{fill:#bdbfc1}.st6{fill:#15b75e}.st7{fill:#fff}.st8{fill:#404041}.st9{fill:#d3d4d6}.st10{fill:#ffe000}.st11{fill:#a8aaad}</style><clipPath id="external-mask"><circle cx="175" cy="122" r="102" fill="#fff"/></clipPath></defs><g clip-path="url(#external-mask)"><g><g><path d="M 258.3 181.3 c 11.5 -16.4 18.3 -36.3 18.4 -57.8 H 72 c 0.2 21.5 7 41.4 18.4 57.8 H 258.3 z" class="st0"/><path d="M 276.7 122.7 c 0 -56.5 -45.8 -102.4 -102.4 -102.4 S 71.9 66.1 71.9 122.7 c 0 0.3 0 0.6 0 0.9 h 204.8 C 276.7 123.3 276.7 123 276.7 122.7 z" class="st1"/></g></g><g><animateTransform id="anim2" attributeName="transform" attributeType="XML" begin="0s" calcMode="spline" dur="3s" keySplines="0.55 0.9 0.5 1;0 0 1 1;0.5 0 0.45 0.1" keyTimes="0;0.4;0.6;1" repeatCount="indefinite" type="translate" values="-150 2; -15 2; -15 2; 120 2"/><g transform="translate(0, 2)"><animateTransform id="anim1" attributeName="transform" attributeType="XML" begin="0s" calcMode="spline" dur="3s" keySplines="0.55 0.9 0.5 1; 0 0 1 1; 0 0 1 1; 0.5 0 0.45 0.1" keyTimes="0; 0.45; 0.5; 0.6; 1" repeatCount="indefinite" type="rotate" values="10 188 0; -3 188 0; 2 188 0; 0 188 0; 10 188 0;"/><polygon points="216.5 147.8 213.8 146 190.1 130.1 188.3 132.8 214.7 150.5" class="st3"/><polyline points="159.3 123.2 187.8 96.8 217.4 123.2" class="st4"/><g><g><path d="M 190.7 68.5 h -6 c -0.8 0 -1.5 -0.7 -1.5 -1.5 V 48.4 c 0 -0.8 0.7 -1.5 1.5 -1.5 s 1.5 0.7 1.5 1.5 v 17.1 h 3 V 48.4 c 0 -0.8 0.7 -1.5 1.5 -1.5 s 1.5 0.7 1.5 1.5 v 18.6 C 192.2 67.9 191.6 68.5 190.7 68.5 z" class="st5"/><path d="M 194.6 93.1 c -1.1 0 -2 0 -3.3 0 c 0 0 0 0.1 0 0.1 c 0 2 -1.6 3.6 -3.6 3.6 s -3.6 -1.6 -3.6 -3.6 c 0 -1.9 1.5 -3.5 3.5 -3.5 v 0 c 0 0 0.1 0 0.1 0 c 0.9 0 1.7 -0.7 1.7 -1.7 v -10 c 0 -0.9 -0.7 -1.7 -1.7 -1.7 c -0.9 0 -1.7 0.7 -1.7 1.7 v 8.5 c -3 0.7 -5.2 3.4 -5.2 6.7 c 0 3.8 3.1 6.9 6.9 6.9 c 3.8 0 6.9 -3.1 6.9 -6.9 C 194.6 93.2 194.6 93.2 194.6 93.1 z" class="st5"/><g><path d="M 195.4 76.5 c 0 2.2 -1.8 4 -4 4 h -7.3 c -2.2 0 -4 -1.8 -4 -4 v -9.5 c 0 -2.2 1.8 -4 4 -4 h 7.3 c 2.2 0 4 1.8 4 4 V 76.5 z" class="st6"/></g></g></g><line x1="187.75" x2="217.43" y1="96.77" y2="123.23" class="st4"/><g><path d="M 217.4 168.3 h -58.1 c -0.8 0 -1.5 -0.7 -1.5 -1.5 V 124.7 c 0 -0.8 0.7 -1.5 1.5 -1.5 h 58.1 c 0.8 0 1.5 0.7 1.5 1.5 v 42.1 C 218.9 167.6 218.3 168.3 217.4 168.3 z" class="st7"/><path d="M 217.4 169.8 h -58.1 c -1.6 0 -3 -1.3 -3 -3 V 124.7 c 0 -1.6 1.3 -3 3 -3 h 58.1 c 1.6 0 3 1.3 3 3 v 42.1 C 220.4 168.4 219.1 169.8 217.4 169.8 z M 217.4 166.8 v 1.5 V 166.8 L 217.4 166.8 L 217.4 166.8 z M 217.4 124.7 l -58.1 0 l 0 42.1 l 58 0 V 124.7 z" class="st8"/></g><g><polygon points="160.5 139.5 159.4 139.5 159.4 152.2 196.3 152.2 196.3 150.2 160.5 150.2" class="st7"/><path d="M 197.8 150.2 h -1.5 v 1.9 h -36.9 v -12.6 h 1.1 v -1.5 v -1.5 h -2.6 c -0.8 0 -1.5 0.7 -1.5 1.5 v 15.6 c 0 0.8 0.7 1.5 1.5 1.5 h 39.9 c 0.8 0 1.5 -0.7 1.5 -1.5 v -3.4 H 197.8 z" class="st9"/><path d="M 201.2 134.6 h -40.7 v 1.9 h 37.3 c 0.8 0 1.5 0.7 1.5 1.5 v 12.2 h 1.9 V 134.6 z" class="st10"/><path d="M 160.5 139.5 v 10.7 h 35.8 v -10.7 H 160.5 z M 164.3 142.5 c 0 -0.1 0.1 -0.2 0.2 -0.2 h 9.5 c 0.1 0 0.2 0.1 0.2 0.2 v 0.9 c 0 0.1 -0.1 0.2 -0.2 0.2 h -9.5 c -0.1 0 -0.2 -0.1 -0.2 -0.2 V 142.5 z M 176.9 149.1 c 0 0.1 -0.1 0.2 -0.2 0.2 h -12.3 c -0.1 0 -0.2 -0.1 -0.2 -0.2 v -0.9 c 0 -0.1 0.1 -0.2 0.2 -0.2 h 12.3 c 0.1 0 0.2 0.1 0.2 0.2 V 149.1 z M 180.6 146.5 h -16.2 c -0.1 0 -0.2 -0.1 -0.2 -0.2 v -0.9 c 0 -0.1 0.1 -0.2 0.2 -0.2 h 16.2 c 0.1 0 0.2 0.1 0.2 0.2 v 0.9 C 180.8 146.4 180.7 146.5 180.6 146.5 z" class="st10"/><path d="M 197.8 136.5 h -37.3 v 1.5 v 1.5 h 35.8 v 10.7 h 1.5 h 1.5 v -12.2 C 199.3 137.2 198.6 136.5 197.8 136.5 z" class="st11"/><path d="M 164.4 143.6 h 9.5 c 0.1 0 0.2 -0.1 0.2 -0.2 v -0.9 c 0 -0.1 -0.1 -0.2 -0.2 -0.2 h -9.5 c -0.1 0 -0.2 0.1 -0.2 0.2 v 0.9 C 164.3 143.6 164.3 143.6 164.4 143.6 z" class="st8"/><path d="M 180.6 145.2 h -16.2 c -0.1 0 -0.2 0.1 -0.2 0.2 v 0.9 c 0 0.1 0.1 0.2 0.2 0.2 h 16.2 c 0.1 0 0.2 -0.1 0.2 -0.2 v -0.9 C 180.8 145.3 180.7 145.2 180.6 145.2 z" class="st8"/><path d="M 176.7 148 h -12.3 c -0.1 0 -0.2 0.1 -0.2 0.2 v 0.9 c 0 0.1 0.1 0.2 0.2 0.2 h 12.3 c 0.1 0 0.2 -0.1 0.2 -0.2 v -0.9 C 176.9 148.1 176.8 148 176.7 148 z" class="st8"/></g><linearGradient id="SVGID_1_" x1="133.644" x2="133.644" y1="130.522" y2="130.522" gradientUnits="userSpaceOnUse"><stop offset="0" style="stop-color:#fff"/><stop offset="0" style="stop-color:#fdfefe"/><stop offset=".5" style="stop-color:#82d8a9"/><stop offset=".8" style="stop-color:#34c073"/><stop offset="1" style="stop-color:#15b75e"/></linearGradient></g></g><path d="M 101.9 50.3 h 144.9 c -1.4 -1.4 -2.8 -2.7 -4.2 -4 H 106.1 C 104.7 47.6 103.3 48.9 101.9 50.3 z" class="st11"/></g></svg>