<svg xmlns="http://www.w3.org/2000/svg" xmlns:xlink="http://www.w3.org/1999/xlink" id="Layer_1" x="0" y="0" version="1.1" viewBox="0 0 93 148.8" xml:space="preserve" style="enable-background:new 0 0 93 148.8"><style type="text/css">.st0{fill:url(#SVGID_1_)}.st1{fill:url(#SVGID_2_)}.st2{fill:url(#SVGID_3_)}.st3{fill:url(#SVGID_4_)}.st4{fill:url(#SVGID_5_)}</style><title>oss-num</title><g id="oss-num-6"><g id="oss-6"><linearGradient id="SVGID_1_" x1="46.5" x2="46.5" y1="151.425" y2="80.805" gradientTransform="matrix(1 0 0 -1 0 151.4252)" gradientUnits="userSpaceOnUse"><stop offset="0" style="stop-color:#61bb78"/><stop offset=".541" style="stop-color:#5fba76"/><stop offset=".735" style="stop-color:#58b771"/><stop offset=".874" style="stop-color:#4db267"/><stop offset=".985" style="stop-color:#3cab58"/><stop offset="1" style="stop-color:#39aa56"/></linearGradient><path d="M93,8c0-4.4-3.6-8-8-8H8C3.6,0,0,3.6,0,8v62.6h93L93,8L93,8z" class="st0"/><linearGradient id="SVGID_2_" x1="46.499" x2="46.499" y1="2.627" y2="75.243" gradientTransform="matrix(1 0 0 -1 0 151.4252)" gradientUnits="userSpaceOnUse"><stop offset="0" style="stop-color:#88cc9a"/><stop offset=".465" style="stop-color:#86ca98"/><stop offset=".717" style="stop-color:#7ec490"/><stop offset=".918" style="stop-color:#70b982"/><stop offset="1" style="stop-color:#68b37a"/></linearGradient><path d="M0,140.8c0,4.4,3.6,8,8,8H85c4.4,0,8-3.6,8-8V76.2H0V140.8z" class="st1"/><linearGradient id="SVGID_3_" x1="48.423" x2="48.423" y1="91.827" y2="80.805" gradientTransform="matrix(1 0 0 -1 0 151.4252)" gradientUnits="userSpaceOnUse"><stop offset="0" style="stop-color:#f0f0f0"/><stop offset=".533" style="stop-color:#eee"/><stop offset=".823" style="stop-color:#e6e6e6"/><stop offset="1" style="stop-color:#dcdcdc"/></linearGradient><path d="M59.6,61.9c-3.9-1.5-8.1-2.3-12.3-2.3c-5,0-10,1.4-14.2,4.1c-2.9,1.8-5.4,4.1-7.4,6.9h8 c1.3-0.9,2.6-1.7,4-2.3c3-1.3,6.2-1.9,9.4-1.9c3.2-0.1,6.3,0.6,9.2,1.9c1.4,0.6,2.7,1.4,3.9,2.3h10.8c-0.7-0.9-1.4-1.7-2.1-2.5 C66.3,65.4,63.1,63.3,59.6,61.9z" class="st2"/><linearGradient id="SVGID_4_" x1="44.988" x2="44.988" y1="123.989" y2="80.799" gradientTransform="matrix(1 0 0 -1 0 151.4252)" gradientUnits="userSpaceOnUse"><stop offset="0" style="stop-color:#f0f0f0"/><stop offset=".533" style="stop-color:#eee"/><stop offset=".823" style="stop-color:#e6e6e6"/><stop offset="1" style="stop-color:#dcdcdc"/></linearGradient><path d="M35.3,38.3c3.6-2.8,8.2-4.2,12.7-4c4.7-0.2,9.3,1.5,12.8,4.6c3.4,3.2,5.5,7.5,6,12.1h8.1 c-0.9-8-3.8-13.9-8.5-17.7c-4.7-3.9-11.1-5.8-19.2-5.8c-4.3-0.1-8.7,0.8-12.6,2.6c-3.4,1.6-6.4,3.9-8.8,6.7 c-2.4,2.7-4.3,5.9-5.7,9.2c-1.4,3.2-2.5,6.6-3.3,10c-0.7,3.1-1.2,6.2-1.5,9.3c-0.2,2.1-0.2,3.8-0.3,5.4h8.2c0.1-3,0.4-6.1,0.8-9.3 c0.6-4.5,1.8-8.9,3.6-13.1C29.4,44.4,32,40.9,35.3,38.3z" class="st3"/><linearGradient id="SVGID_5_" x1="46.089" x2="46.089" y1="31.359" y2="75.243" gradientTransform="matrix(1 0 0 -1 0 151.4252)" gradientUnits="userSpaceOnUse"><stop offset="0" style="stop-color:#fff"/><stop offset=".57" style="stop-color:#fdfdfd"/><stop offset=".879" style="stop-color:#f5f5f5"/><stop offset="1" style="stop-color:#efefef"/></linearGradient><path d="M67.5,81c1,3,1.5,6.1,1.5,9.3c0,3-0.5,6-1.5,8.9c-1.9,5.5-6,9.9-11.3,12.4c-2.8,1.3-5.8,1.9-8.8,1.9 c-3.5,0.1-6.9-0.5-10.2-1.8c-2.7-1.1-5.1-2.8-7-4.9c-1.9-2.1-3.3-4.7-4.1-7.4c-0.9-2.9-1.3-6-1.3-9c0-3.2,0.5-6.3,1.5-9.3 c0.6-1.7,1.3-3.2,2.3-4.7H15.1c0.1,6.2,0.7,12.4,1.8,18.5c0.9,5.2,2.9,10.2,5.7,14.7c2.4,3.6,5.8,6.5,9.8,8.2 c4.5,1.8,9.3,2.6,14.1,2.5c4.2,0,8.4-0.7,12.3-2.3c7.3-2.9,13.1-8.6,15.9-16c1.5-3.9,2.3-8,2.3-12.2c0-4.1-0.7-8.2-2.1-12.1 c-0.2-0.5-0.4-1-0.6-1.4h-9.1C66.2,77.7,66.9,79.3,67.5,81z" class="st4"/></g></g></svg>