<svg xmlns="http://www.w3.org/2000/svg" xmlns:xlink="http://www.w3.org/1999/xlink" id="Layer_1" x="0" y="0" version="1.1" viewBox="0 0 93 148.8" xml:space="preserve" style="enable-background:new 0 0 93 148.8"><style type="text/css">.st0{fill:url(#SVGID_1_)}.st1{fill:url(#SVGID_2_)}.st2{fill:url(#SVGID_3_)}.st3{fill:url(#SVGID_4_)}</style><title>oss-num</title><g id="oss-num-1"><g id="oss-1"><linearGradient id="SVGID_1_" x1="46.5" x2="46.5" y1="151.425" y2="80.805" gradientTransform="matrix(1 0 0 -1 0 151.4252)" gradientUnits="userSpaceOnUse"><stop offset="0" style="stop-color:#61bb78"/><stop offset=".541" style="stop-color:#5fba76"/><stop offset=".735" style="stop-color:#58b771"/><stop offset=".874" style="stop-color:#4db267"/><stop offset=".985" style="stop-color:#3cab58"/><stop offset="1" style="stop-color:#39aa56"/></linearGradient><path d="M93,8c0-4.4-3.6-8-8-8H8C3.6,0,0,3.6,0,8v62.6h93V8z" class="st0"/><linearGradient id="SVGID_2_" x1="46.499" x2="46.499" y1="2.627" y2="75.243" gradientTransform="matrix(1 0 0 -1 0 151.4252)" gradientUnits="userSpaceOnUse"><stop offset="0" style="stop-color:#88cc9a"/><stop offset=".465" style="stop-color:#86ca98"/><stop offset=".717" style="stop-color:#7ec490"/><stop offset=".918" style="stop-color:#70b982"/><stop offset="1" style="stop-color:#68b37a"/></linearGradient><path d="M0,140.8c0,4.4,3.6,8,8,8H85c4.4,0,8-3.6,8-8V76.2H0V140.8z" class="st1"/><linearGradient id="SVGID_3_" x1="39.625" x2="39.625" y1="123.207" y2="80.805" gradientTransform="matrix(1 0 0 -1 0 151.4252)" gradientUnits="userSpaceOnUse"><stop offset="0" style="stop-color:#f0f0f0"/><stop offset=".533" style="stop-color:#eee"/><stop offset=".823" style="stop-color:#e6e6e6"/><stop offset="1" style="stop-color:#dcdcdc"/></linearGradient><path d="M55.6,28.2H49c-0.4,3.4-1.4,6.6-3,9.6c-1.3,2.1-3.1,3.9-5.3,5.1c-2.3,1.2-4.9,1.9-7.5,2.1 c-2.9,0.3-6.1,0.5-9.6,0.6v5.8h23.8v19.3h8.1L55.6,28.2z" class="st2"/><linearGradient id="SVGID_4_" x1="51.52" x2="51.52" y1="33.172" y2="75.242" gradientTransform="matrix(1 0 0 -1 0 151.4252)" gradientUnits="userSpaceOnUse"><stop offset="0" style="stop-color:#fff"/><stop offset=".57" style="stop-color:#fdfdfd"/><stop offset=".879" style="stop-color:#f5f5f5"/><stop offset="1" style="stop-color:#efefef"/></linearGradient><rect width="8.1" height="42.1" x="47.5" y="76.2" class="st3"/></g></g></svg>