<svg xmlns="http://www.w3.org/2000/svg" xmlns:xlink="http://www.w3.org/1999/xlink" id="Layer_1" x="0" y="0" version="1.1" viewBox="0 0 93 148.8" xml:space="preserve" style="enable-background:new 0 0 93 148.8"><style type="text/css">.st0{fill:url(#SVGID_1_)}.st1{fill:url(#SVGID_2_)}.st2{fill:url(#SVGID_3_)}.st3{fill:url(#SVGID_4_)}</style><title>oss-num</title><g id="oss-num-2"><g id="oss-2"><linearGradient id="SVGID_1_" x1="46.5" x2="46.5" y1="151.425" y2="80.805" gradientTransform="matrix(1 0 0 -1 0 151.4252)" gradientUnits="userSpaceOnUse"><stop offset="0" style="stop-color:#61bb78"/><stop offset=".541" style="stop-color:#5fba76"/><stop offset=".735" style="stop-color:#58b771"/><stop offset=".874" style="stop-color:#4db267"/><stop offset=".985" style="stop-color:#3cab58"/><stop offset="1" style="stop-color:#39aa56"/></linearGradient><path d="M93,8c0-4.4-3.6-8-8-8H8C3.6,0,0,3.6,0,8v62.6h93L93,8L93,8z" class="st0"/><linearGradient id="SVGID_2_" x1="46.499" x2="46.499" y1="2.627" y2="75.243" gradientTransform="matrix(1 0 0 -1 0 151.4252)" gradientUnits="userSpaceOnUse"><stop offset="0" style="stop-color:#88cc9a"/><stop offset=".465" style="stop-color:#86ca98"/><stop offset=".717" style="stop-color:#7ec490"/><stop offset=".918" style="stop-color:#70b982"/><stop offset="1" style="stop-color:#68b37a"/></linearGradient><path d="M0,140.8c0,4.4,3.6,8,8,8H85c4.4,0,8-3.6,8-8V76.2H0V140.8z" class="st1"/><linearGradient id="SVGID_3_" x1="46.96" x2="46.96" y1="123.988" y2="80.805" gradientTransform="matrix(1 0 0 -1 0 151.4252)" gradientUnits="userSpaceOnUse"><stop offset="0" style="stop-color:#f0f0f0"/><stop offset=".533" style="stop-color:#eee"/><stop offset=".823" style="stop-color:#e6e6e6"/><stop offset="1" style="stop-color:#dcdcdc"/></linearGradient><path d="M75.3,52.8c0.1-3.8-0.6-7.6-2.1-11.1c-1.3-3.1-3.4-5.8-5.9-7.9c-2.6-2.1-5.6-3.8-8.9-4.8 c-3.6-1.1-7.3-1.6-11-1.6c-4.4-0.1-8.7,0.7-12.8,2.4c-3.5,1.5-6.6,3.7-9.1,6.6c-2.5,3-4.3,6.4-5.3,10.1c-1.2,4.2-1.7,8.5-1.6,12.8 h8.1c-0.1-3.2,0.2-6.4,1-9.5c0.7-2.9,1.9-5.6,3.5-8c1.6-2.3,3.8-4.2,6.4-5.5c2.9-1.4,6.2-2.2,9.4-2.1c2.6,0,5.3,0.4,7.8,1.2 c2.4,0.8,4.5,2,6.4,3.6c1.9,1.6,3.3,3.6,4.4,5.8c1.1,2.4,1.7,5.1,1.6,7.8c0.1,3.2-0.6,6.4-1.9,9.3c-1.4,2.9-3.3,5.4-5.6,7.7 c-0.3,0.3-0.7,0.7-1,1h10.4c1.8-2.3,3.2-4.8,4.3-7.5C74.7,59.8,75.4,56.3,75.3,52.8z" class="st2"/><linearGradient id="SVGID_4_" x1="46.066" x2="46.066" y1="33.172" y2="75.237" gradientTransform="matrix(1 0 0 -1 0 151.4252)" gradientUnits="userSpaceOnUse"><stop offset="0" style="stop-color:#fff"/><stop offset=".57" style="stop-color:#fdfdfd"/><stop offset=".879" style="stop-color:#f5f5f5"/><stop offset="1" style="stop-color:#efefef"/></linearGradient><path d="M51.3,76.6c-3.1,2.2-6.3,4.3-9.4,6.4c-3.2,2.1-6.3,4.3-9.3,6.6c-3,2.2-5.7,4.7-8.1,7.5 c-2.4,2.8-4.4,5.9-5.8,9.3c-1.5,3.8-2.3,7.8-2.3,11.8h59.3v-7.5h-50c0.5-3.1,1.9-5.9,3.9-8.3c2.1-2.6,4.5-4.9,7.1-7 c2.7-2.1,5.5-4.1,8.4-5.8c2.9-1.8,5.4-3.4,7.6-4.8c3-1.9,5.8-3.9,8.6-6.1c1-0.8,1.9-1.7,2.9-2.5H52C51.8,76.3,51.6,76.5,51.3,76.6 z" class="st3"/></g></g></svg>